<svg xmlns="http://www.w3.org/2000/svg" version="1.1" width="96" height="96" viewbox="0 0 96 96"><rect x="0" y="0" width="96" height="96" fill="#FFFFFF"></rect><g transform="translate(37.08, 58.32)"><path d="M20.54-18.86L20.54-18.86Q20.54-18.14 19.97-17.62 19.39-17.09 18.77-17.09L18.77-17.09Q18.34-17.09 17.71-17.52L17.71-17.52Q15.98-18.82 13.58-18.82L13.58-18.82Q9.5-18.82 7.15-17.23L7.15-17.23Q5.57-16.27 5.57-14.78L5.57-14.78Q5.57-13.87 6.38-13.06L6.38-13.06Q6.82-12.62 6.96-12.58 7.1-12.53 7.54-12.67L7.54-12.67Q9.02-13.34 11.42-13.34L11.42-13.34Q12.29-13.34 12.74-13.32 13.2-13.3 13.75-13.15 14.3-13.01 14.54-12.7 14.78-12.38 14.78-11.86L14.78-11.86Q14.78-10.8 13.78-10.32L13.78-10.32Q12.96-9.89 10.7-9.89 8.45-9.89 6.82-10.51L6.82-10.51 6.34-10.18Q3.26-8.11 3.26-5.38L3.26-5.38Q3.26-1.87 9.65-1.87L9.65-1.87Q15.12-1.87 16.7-4.75L16.7-4.75Q16.85-5.04 17.38-5.04L17.38-5.04Q18.05-4.94 18.05-4.22L18.05-4.22Q18.05-3.89 17.86-3.5L17.86-3.5Q16.8-1.39 14.5-0.17 12.19 1.06 9.12 1.06L9.12 1.06Q5.18 1.06 3.02-1.1L3.02-1.1Q1.3-2.74 1.3-5.14L1.3-5.14Q1.3-7.2 2.83-9.31L2.83-9.31Q3.46-10.13 4.66-11.14L4.66-11.14 5.14-11.47 4.75-11.9Q3.65-13.1 3.65-14.59L3.65-14.59Q3.65-16.22 4.66-17.47L4.66-17.47Q5.9-19.15 8.21-20.3 10.51-21.46 13.2-21.7L13.2-21.7 13.92-21.7Q17.23-21.7 19.44-20.21L19.44-20.21Q20.54-19.49 20.54-18.86Z" fill="#404040"></path></g></svg>